<svg version="1.1"
      xmlns="http://www.w3.org/2000/svg"
      xmlns:xlink="http://www.w3.org/1999/xlink"  id="snapshot-70990" width="180" height="216" viewBox="0 0 180 216"><desc>This image was made on Patterninja.com</desc><defs>
<!-- image 36008 -->
<g id="transformed-36008" data-image="36008" transform="translate(-187.5, -187.49999999999991) rotate(0, 187.5, 187.49999999999991)"><g><svg version="1.1" width="375px" height="374.99999999999983px" viewBox="0 0 375 374.99999999999983"><g id="original-36008"><svg xmlns="http://www.w3.org/2000/svg" viewBox="0 0 135.47 135.47" xmlns:xlink="http://www.w3.org/1999/xlink" version="1.1" preserveAspectRatio="xMidYMid meet">
  <path d="M40.386 53.914c.024 1.141.734 1.112 1.159.867l-.032-2.995c.122-.568.543-1.7.935-2.48.531-1 .92-1.606 1.111-1.496.172.097-.028 1.032-1.56 3.557l.662.807c1.16 1.408 1.613 1.793 2.305.193.237-.53.38-1.12.453-1.416.138-.6.205-1.285.229-2.003-.008-.134-.143-.148-.156.01a7.69 7.69 0 0 1-.396 2.433c-.334 1.082-.47 1.287-1.207.35l-.697-.867a13.7 13.7 0 0 0 .722-1.549c.425-1.204.341-1.929-.285-1.833-.64.092-1.479 1.778-2.144 3.466l-.011-1.54c-.053-3.41-.231-8.1 1.717-10.506 1.471-1.831 3.61-3.147 5.546-1.193.463-.499.06-.958-.335-1.1-2.082-.807-3.815.332-5.42 2.17-2.257 2.632-2.683 6.954-2.66 10.694z" style="-inkscape-font-specification:'Candlescript Demo Version';text-align:center" font-size="16.933" font-family="Candlescript Demo Version" word-spacing="0" text-anchor="middle" fill="rgba(0, 0, 0, 1)" stroke="none"/>
  <path d="M50.341 46.157a8 8 0 0 1-.525 2.89c-.353.77-.851 1.565-.864.383l-.054-2.693c-.035-1.62-.756-1.908-1.189-1.658-.545.315-1.018 1.315-1.272 2.235-.06-.982-.73-.964-1.137-.729l.088 4.453c.024 1.14.712 1.113 1.136.868l-.055-3.456a5.9 5.9 0 0 1 .387-1.77c.389-.987.869-1.495.893-.412l.045 2.676c.034 1.62.738 1.918 1.17 1.668.84-.485 1.5-2.32 1.534-4.464 0-.14-.144-.148-.148.004z" style="-inkscape-font-specification:'Candlescript Demo Version';text-align:center" font-size="16.933" font-family="Candlescript Demo Version" word-spacing="0" text-anchor="middle" fill="rgba(0, 0, 0, 1)" stroke="none"/>
  <path d="M53.888 44.64c-.031-1.714-.662-2.746-1.961-1.996s-1.868 2.464-1.854 4.188c.046 1.74.646 2.78 1.954 2.024.346-.2.61-.422.862-.706.153.005.352-.03.536-.113.43-.214 1.006-.777 1.358-1.707a8.8 8.8 0 0 0 .478-2.932c0-.14-.144-.148-.13-.006a8.38 8.38 0 0 1-.543 2.9c-.197.46-.633 1.104-1.142 1.202-.054.008-.102.024-.14 0a6.6 6.6 0 0 0 .582-2.853zm-1.867 3.966c-.477.275-.841-.797-.87-2.385-.026-1.567.33-3.03.78-3.29.32-.186.67-.019.846.804a8.14 8.14 0 0 1 .075 2.67c-.725.465-.847 1.274-.401 1.606-.175.378-.344.545-.43.595z" style="-inkscape-font-specification:'Candlescript Demo Version';text-align:center" font-size="16.933" font-family="Candlescript Demo Version" word-spacing="0" text-anchor="middle" fill="rgba(0, 0, 0, 1)" stroke="none"/>
  <path d="M60.503 42.658c.802-2.311.13-4.417-2.087-5.054-.118-.025-.285.026-.113.123.77.375 1.412 1.725 1.513 3.121.131 1.587-.244 3.398-.98 3.823-.346.2-.395-.546-.4-.693l-.064-3.312c-.024-1.14-.702-1.096-1.127-.85l.047 2.86c.024 1.082-.273 2.928-.81 3.238-.346.2-.369-.48-.387-.63l-.056-3.398c-.005-1.129-.693-1.1-1.126-.85l.061 3.486c.016.707.065 1.833.925 1.902.797.06 1.614-1.105 1.927-2.383.057.499.584 1.21 1.236.741a4.82 4.82 0 0 0 1.44-2.124zm2.37-5.595c-.052-3.41-.24-8.095 1.717-10.506 1.463-1.826 3.61-3.147 5.547-1.193.454-.494.05-.953-.344-1.095-2.082-.807-3.815.332-5.412 2.166-2.257 2.63-2.683 6.953-2.669 10.698l.077 3.731c.011.94.234 1.447.541 1.639.752.501 1.488-.824 1.692-1.37a9.66 9.66 0 0 0 .6-3.14c-.016-.13-.143-.148-.156.01.017 1.029-.29 2.176-.569 2.914-.294.77-.955 1.625-.968.443z" style="-inkscape-font-specification:'Candlescript Demo Version';text-align:center" font-size="16.933" font-family="Candlescript Demo Version" word-spacing="0" text-anchor="middle" fill="rgba(0, 0, 0, 1)" stroke="none"/>
  <path d="M65.918 34.797c.312-.18.534.246.527 1.012a3.63 3.63 0 0 1-1.278 2.666l-.002-.922c.045-1.343.368-2.523.758-2.748zm-1.877 3.89c.159 1.594 1.204 2.145 2.042 1.915 1.209-.305 1.877-1.188 2.32-2.263a7.4 7.4 0 0 0 .52-2.818c0-.138-.143-.148-.156.01a7.77 7.77 0 0 1-.52 2.701c-.445 1.008-1.221 1.883-2.073 1.867-.544-.02-.866-.62-.972-1.402 1.115-.909 2.288-2.198 2.335-3.276.064-1.169-.805-1.314-1.593-.859-1.411.815-2.048 2.592-1.894 4.12z" style="-inkscape-font-specification:'Candlescript Demo Version';text-align:center" font-size="16.933" font-family="Candlescript Demo Version" word-spacing="0" text-anchor="middle" fill="rgba(0, 0, 0, 1)" stroke="none"/>
  <path d="M70.386 32.436c.407-.235.725.656.752 2.222.027 1.567-.287 2.903-.677 3.128-.51.295-.803-.691-.838-2.253-.019-1.571.387-2.868.763-3.097zm.717.302c-.214-.511-.556-.764-.972-.604-1.29.467-1.666 2.774-1.638 4.063.024 1.441.66 2.702 1.706 2.155.546-.315.911-1.022 1.088-1.955.089.353.25.571.409.687.756.51 1.492-.815 1.731-1.38a9.94 9.94 0 0 0 .566-3.121c0-.14-.143-.148-.156.01a8.8 8.8 0 0 1-.535 2.894c-.328.79-.972 1.635-.985.453l-.073-4.287c-.053-3.41-.24-8.095 1.717-10.506 1.462-1.826 3.61-3.147 5.546-1.193.454-.494.05-.953-.343-1.095-2.083-.807-3.816.332-5.412 2.166-2.257 2.63-2.683 6.953-2.66 10.693z" style="-inkscape-font-specification:'Candlescript Demo Version';text-align:center" font-size="16.933" font-family="Candlescript Demo Version" word-spacing="0" text-anchor="middle" fill="rgba(0, 0, 0, 1)" stroke="none"/>
  <path d="M77.308 28.105c-.693.4-1.076.737-1.102 1.71-.225-.528-.545-.782-.974-.626-1.307.477-1.657 2.77-1.638 4.063.024 1.441.634 2.659 1.706 2.155.474-.239.788-.755 1.005-1.7l-.005.373c.003 3.404.24 8.094-1.712 10.514-1.463 1.826-3.615 3.138-5.546 1.193-.454.494-.06.958.338 1.087 2.088.815 3.82-.324 5.412-2.167 2.257-2.63 2.662-6.929 2.64-10.668zm-1.82 1.386c.398-.23.724.656.76 2.217.018 1.572-.296 2.908-.695 3.138-.52.3-.794-.696-.82-2.263s.378-2.863.754-3.092zm4.572-2.86c.303-.174.535.247.527 1.013a3.63 3.63 0 0 1-1.278 2.666 14.377 14.377 0 0 1-.002-.922c.036-1.338.36-2.518.758-2.748zm-1.89 3.887c.158 1.594 1.204 2.145 2.05 1.91 1.21-.305 1.878-1.187 2.31-2.257a7.4 7.4 0 0 0 .521-2.818c.001-.14-.143-.148-.147.004a7.77 7.77 0 0 1-.528 2.706c-.445 1.008-1.222 1.884-2.074 1.868-.543-.021-.866-.62-.971-1.402 1.123-.915 2.296-2.204 2.335-3.277.064-1.168-.796-1.318-1.593-.858-1.403.81-2.04 2.586-1.894 4.119zm7.792-9.164c.132.328.518.417.856.222.32-.185.523-.614.408-.952-.126-.32-.505-.436-.843-.24-.32.184-.548.65-.421.97zm.287 5.377c.022 1.638.734 1.931 1.167 1.681.84-.485 1.518-2.33 1.533-4.464 0-.14-.143-.148-.139 0a8.3 8.3 0 0 1-.534 2.894c-.361.774-.86 1.57-.873.388l-.064-3.392c-.023-1.118-.73-1.103-1.154-.858z" style="-inkscape-font-specification:'Candlescript Demo Version';text-align:center" font-size="16.933" font-family="Candlescript Demo Version" word-spacing="0" text-anchor="middle" fill="rgba(0, 0, 0, 1)" stroke="none"/>
  <path d="M90.367 24.203c.896.672.84 1.455.326 1.925a1.33 1.33 0 0 1-1.98-.15c.148-.744.239-1.685.243-2.219-.56.23-.816.887-.796 1.302.043 1.154 1.1 1.906 2.13 1.61a2.514 2.514 0 0 0 1.398-1.06c.432-.711.367-1.424-.232-2.002-.58-.565-1.493-.985-1.862-1.523-.619-.913.96-1.859 1.37-.988a1 1 0 0 0-.222.094c-.312.18-.487.558-.374.874.122.31.47.375.774.2.468-.27.646-.881.305-1.331-.287-.377-.879-.543-1.58-.196-1.487.743-1.244 2.104-.399 2.748z" style="-inkscape-font-specification:'Candlescript Demo Version';text-align:center" font-size="16.933" font-family="Candlescript Demo Version" word-spacing="0" text-anchor="middle" fill="rgba(0, 0, 0, 1)" stroke="none"/>
  <g>
    <path d="M46.82 62.63c.219.52.582.75 1.017.603 1.279-.485 1.634-2.769 1.632-4.072-.018-1.433-.637-2.704-1.696-2.139-.535.274-.864.904-1.048 1.725-.19-.629-.743-.587-1.08-.392l.088 5.353c.06 3.406.251 8.076-1.7 10.496-1.463 1.827-3.61 3.147-5.547 1.194-.454.493-.05.952.344 1.094 2.082.807 3.815-.332 5.412-2.166 2.252-2.64 2.69-6.9 2.6-10.635zm.716.303c-.407.235-.689-.654-.717-2.242-.027-1.567.227-2.787.634-3.022.399-.23.83.595.856 2.162.037 1.583-.374 2.872-.773 3.102zm6.48-6.397c-.031-1.714-.657-2.739-1.965-1.984-1.299.75-1.868 2.465-1.854 4.189.05 1.726.655 2.774 1.954 2.024.355-.205.614-.436.857-.715.162 0 .361-.035.544-.117.422-.21.998-.773 1.358-1.708a8.8 8.8 0 0 0 .478-2.932c.001-.139-.143-.148-.138 0 .017 1.029-.254 2.2-.535 2.894-.196.46-.632 1.104-1.15 1.207-.04.012-.102.024-.13-.005a6.6 6.6 0 0 0 .581-2.853zM52.148 60.5c-.476.275-.84-.797-.877-2.38-.027-1.567.329-3.03.779-3.29.32-.186.684-.015.854.8a8.14 8.14 0 0 1 .08 2.678c-.73.456-.851 1.265-.405 1.597-.175.378-.353.55-.44.6z" style="-inkscape-font-specification:'Candlescript Demo Version';text-align:center" font-size="16.933" font-family="Candlescript Demo Version" word-spacing="0" text-anchor="middle" fill="rgba(0, 0, 0, 1)" stroke="none"/>
    <path d="M60.64 54.548c.798-2.297.12-4.412-2.104-5.044-.11-.03-.277.02-.105.118.767.389 1.411 1.725 1.513 3.122.131 1.587-.248 3.41-.975 3.83-.355.205-.4-.553-.41-.71l-.064-3.311c-.024-1.141-.702-1.096-1.127-.851l.043 2.874c.024 1.082-.264 2.923-.8 3.233-.347.2-.379-.474-.388-.63l-.06-3.384c-.01-1.137-.693-1.101-1.117-.856l.047 3.483c.03.71.07 1.841.94 1.906.79.05 1.6-1.109 1.926-2.383.052.49.578 1.202 1.231.733a4.77 4.77 0 0 0 1.44-2.125zm2.842-6.376c.303-.175.535.246.527 1.012a3.63 3.63 0 0 1-1.278 2.667 14.377 14.377 0 0 1-.002-.923c.037-1.338.36-2.517.758-2.747zm-1.885 3.894c.153 1.586 1.199 2.137 2.045 1.903 1.21-.306 1.883-1.18 2.31-2.258a7.4 7.4 0 0 0 .522-2.818c0-.139-.144-.148-.148.004a7.77 7.77 0 0 1-.531 2.72c-.442.995-1.227 1.875-2.07 1.854-.544-.021-.862-.611-.972-1.402 1.123-.914 2.301-2.195 2.335-3.277.064-1.168-.796-1.318-1.593-.858-1.403.81-2.04 2.586-1.89 4.127z" style="-inkscape-font-specification:'Candlescript Demo Version';text-align:center" font-size="16.933" font-family="Candlescript Demo Version" word-spacing="0" text-anchor="middle" fill="rgba(0, 0, 0, 1)" stroke="none"/>
    <path d="M68.829 51.113c.528-.305.85-1.068 1.125-2.151a9.063 9.063 0 0 0 .26-2.23c.001-.138-.142-.147-.155.01a8.7 8.7 0 0 1-.51 2.916c-.316.794-.72 1.455-.715.263l.005-1.331c-.035-1.481-.968-1.577-1.388-1.624l-.948-.122a11.036 11.036 0 0 0-.337-1.884c-.589.34-.898 1.904.092 2.06a17.02 17.02 0 0 1-.074 3.472c-.036.136.102.195.127.02a15.9 15.9 0 0 0 .205-3.445l.351.028c.7.093.798.44.831.999l.008 1.334c-.013 1.636.699 1.93 1.123 1.685zm6.447-3.954c-.398.23-.698-.89-.735-2.473l.009-.225c-.008-1.473.244-2.577.616-2.792.416-.24.846.585.873 2.152.037 1.583-.378 3.105-.768 3.33zm-1.867-2.213c.057 2.439.98 2.957 1.803 2.482 1.056-.61 1.996-2.562 1.97-4.267-.01-1.438-.637-2.704-1.688-2.144-.49.25-.802.81-.983 1.538l.004-.233c-.057-3.42-.24-8.095 1.712-10.515 1.463-1.826 3.61-3.147 5.547-1.193.454-.493.05-.953-.344-1.095-2.082-.807-3.815.332-5.412 2.166-2.251 2.64-2.691 6.958-2.668 10.698z" style="-inkscape-font-specification:'Candlescript Demo Version';text-align:center" font-size="16.933" font-family="Candlescript Demo Version" word-spacing="0" text-anchor="middle" fill="rgba(0, 0, 0, 1)" stroke="none"/>
    <path d="M80.573 42.635c.185 1.06.735 1.273 1.108 1.058.831-.48 1.497-2.308 1.524-4.46 0-.139-.143-.148-.147.004a8 8 0 0 1-.543 2.9c-.335.76-.834 1.556-.856.379l-.092-4.9c-.728.42-1.092.768-1.078 1.892l.05 2.107c-.05.653-.246 1.274-.441 1.756-.353.989-.887 1.644-.908.547l-.06-3.383c-.01-1.137-.693-1.101-1.117-.856l.072 3.746c.017 1.63.755 1.908 1.171 1.668.528-.305 1.063-1.48 1.317-2.458z" style="-inkscape-font-specification:'Candlescript Demo Version';text-align:center" font-size="16.933" font-family="Candlescript Demo Version" word-spacing="0" text-anchor="middle" fill="rgba(0, 0, 0, 1)" stroke="none"/>
    <path d="M82.234 37.23c-.225.13-.13.376.052.27l.701-.404.05 2.685c.04 2.91 1.609 2.847 2.59 1.126a7.4 7.4 0 0 0 .878-3.58c-.017-.128-.144-.147-.148.005a6.72 6.72 0 0 1-.935 3.461c-.23.341-.482.625-.766.674-.3.058-.434-.454-.446-1.313l-.088-3.713 1.16-.67c.2-.115.147-.386-.034-.28l-1.126.65c-.054-3.353-.121-7.61 1.718-9.884 1.472-1.831 3.62-3.152 5.547-1.193.463-.498.059-.958-.335-1.1-2.082-.807-3.815.332-5.412 2.166-2.252 2.64-2.693 6.936-2.661 10.67z" style="-inkscape-font-specification:'Candlescript Demo Version';text-align:center" font-size="16.933" font-family="Candlescript Demo Version" word-spacing="0" text-anchor="middle" fill="rgba(0, 0, 0, 1)" stroke="none"/>
  </g>
  <g>
    <path d="M43.844 77.487c.22.52.587.758 1.008.607 1.288-.489 1.658-2.77 1.647-4.068-.024-1.441-.642-2.712-1.706-2.155-.525.291-.86.911-1.038 1.742-.195-.638-.748-.596-1.086-.4l.088 5.352c.061 3.406.257 8.085-1.7 10.496-1.462 1.826-3.61 3.147-5.546 1.193-.454.494-.05.953.343 1.095 2.083.807 3.816-.332 5.412-2.166 2.257-2.63 2.696-6.89 2.601-10.635zm.722.311c-.407.235-.694-.662-.717-2.242-.032-1.575.222-2.795.629-3.03.398-.23.829.595.855 2.162.042 1.592-.374 2.871-.772 3.101zm6.475-6.405c-.032-1.714-.658-2.739-1.965-1.984-1.3.75-1.868 2.465-1.855 4.189.055 1.735.655 2.774 1.954 2.024.355-.205.615-.436.858-.715.166.008.36-.035.544-.118.427-.2.997-.772 1.358-1.707a8.8 8.8 0 0 0 .478-2.932c0-.14-.143-.148-.134.008.017 1.03-.258 2.193-.539 2.886-.196.46-.633 1.104-1.15 1.207-.04.011-.102.024-.126.003a6.6 6.6 0 0 0 .577-2.861zm-1.868 3.965c-.476.275-.836-.788-.878-2.38-.027-1.567.334-3.022.784-3.282.32-.185.68-.023.85.791a8.14 8.14 0 0 1 .08 2.679c-.73.456-.846 1.274-.406 1.597-.174.378-.352.55-.439.6z" style="-inkscape-font-specification:'Candlescript Demo Version';text-align:center" font-size="16.933" font-family="Candlescript Demo Version" word-spacing="0" text-anchor="middle" fill="rgba(0, 0, 0, 1)" stroke="none"/>
    <path d="M57.655 69.41c.807-2.302.13-4.417-2.09-5.04-.114-.039-.276.02-.105.118.757.37 1.412 1.725 1.509 3.112.13 1.588-.248 3.411-.975 3.831-.356.205-.401-.554-.405-.701l-.065-3.312c-.024-1.14-.702-1.096-1.126-.85l.037 2.865c.025 1.082-.263 2.923-.8 3.233-.347.2-.378-.475-.387-.63l-.06-3.384c-.005-1.129-.693-1.101-1.118-.856l.048 3.483c.03.71.07 1.841.939 1.906.791.05 1.605-1.1 1.927-2.383.056.498.583 1.21 1.23.732a4.69 4.69 0 0 0 1.441-2.124zm2.857-6.373c.303-.175.53.238.522 1.004a3.63 3.63 0 0 1-1.273 2.675c-.018-.29-.014-.604-.01-.918.048-1.356.363-2.53.761-2.76zm-1.89 3.886c.153 1.586 1.199 2.137 2.045 1.903 1.209-.306 1.882-1.18 2.31-2.258a7.4 7.4 0 0 0 .526-2.81c0-.138-.143-.148-.142.014a7.77 7.77 0 0 1-.547 2.694c-.442.994-1.227 1.874-2.07 1.853-.539-.012-.861-.611-.966-1.393 1.118-.923 2.287-2.199 2.33-3.285.064-1.17-.797-1.319-1.593-.859-1.403.81-2.04 2.587-1.89 4.128z" style="-inkscape-font-specification:'Candlescript Demo Version';text-align:center" font-size="16.933" font-family="Candlescript Demo Version" word-spacing="0" text-anchor="middle" fill="rgba(0, 0, 0, 1)" stroke="none"/>
    <path d="M65.859 65.978c.528-.305.85-1.068 1.12-2.16a9.063 9.063 0 0 0 .26-2.228c.001-.14-.143-.148-.15.018.016 1.03-.253 2.224-.516 2.907-.315.794-.72 1.454-.715.262l.005-1.33c-.03-1.473-.968-1.578-1.387-1.624l-.948-.122a11.036 11.036 0 0 0-.338-1.884c-.588.34-.898 1.904.098 2.068a17.02 17.02 0 0 1-.08 3.464c-.036.136.102.195.127.019a15.9 15.9 0 0 0 .21-3.436l.352.029c.695.083.797.44.826.99l.013 1.343c-.019 1.627.693 1.92 1.118 1.675z" style="-inkscape-font-specification:'Candlescript Demo Version';text-align:center" font-size="16.933" font-family="Candlescript Demo Version" word-spacing="0" text-anchor="middle" fill="rgba(0, 0, 0, 1)" stroke="none"/>
    <path d="M67.99 59.229c-.053-3.411-.24-8.095 1.711-10.515 1.463-1.826 3.616-3.138 5.547-1.193.454-.493.05-.953-.339-1.087-2.087-.815-3.82.324-5.412 2.167-2.257 2.63-2.688 6.944-2.665 10.684l.06 3.741c.024.944.251 1.437.563 1.638.73.503 1.479-.82 1.687-1.378a9.66 9.66 0 0 0 .597-3.128c-.017-.128-.144-.148-.152.019a8.3 8.3 0 0 1-.565 2.9c-.298.785-.964 1.631-.976.45z" style="-inkscape-font-specification:'Candlescript Demo Version';text-align:center" font-size="16.933" font-family="Candlescript Demo Version" word-spacing="0" text-anchor="middle" fill="rgba(0, 0, 0, 1)" stroke="none"/>
    <path d="M71.034 56.962c.312-.18.53.238.522 1.004a3.63 3.63 0 0 1-1.265 2.67 9.374 9.374 0 0 1-.01-.918c.04-1.35.363-2.53.753-2.756zm-1.882 3.881c.154 1.586 1.2 2.137 2.037 1.908 1.21-.306 1.883-1.18 2.32-2.263a7.4 7.4 0 0 0 .525-2.81c0-.138-.143-.148-.151.019a7.77 7.77 0 0 1-.519 2.7c-.45 1-1.227 1.876-2.08 1.86-.538-.013-.86-.612-.966-1.394 1.11-.918 2.288-2.198 2.33-3.285.064-1.169-.804-1.314-1.593-.859-1.411.815-2.04 2.587-1.889 4.128z" style="-inkscape-font-specification:'Candlescript Demo Version';text-align:center" font-size="16.933" font-family="Candlescript Demo Version" word-spacing="0" text-anchor="middle" fill="rgba(0, 0, 0, 1)" stroke="none"/>
    <path d="M75.455 57.92c.893.686.84 1.455.318 1.93a1.33 1.33 0 0 1-1.975-.141c.143-.753.239-1.686.243-2.22-.56.232-.816.888-.796 1.303.038 1.145 1.1 1.905 2.126 1.602a2.4 2.4 0 0 0 1.397-1.06c.432-.712.367-1.425-.227-1.994-.581-.566-1.498-.994-1.862-1.524-.619-.912.955-1.867 1.37-.987a1 1 0 0 0-.227.085c-.312.18-.487.558-.369.883.117.302.47.375.774.2.476-.275.646-.881.305-1.331-.292-.386-.884-.552-1.584-.205-1.48.738-1.245 2.104-.395 2.756zm3.897-2.25c.902.68.84 1.455.327 1.925a1.33 1.33 0 0 1-1.976-.141c.143-.753.24-1.686.243-2.22-.568.237-.824.893-.795 1.303.037 1.145 1.1 1.905 2.117 1.607a2.434 2.434 0 0 0 1.406-1.066c.423-.706.367-1.424-.228-1.993-.589-.56-1.497-.994-1.87-1.519-.619-.912.963-1.872 1.37-.987a1 1 0 0 0-.227.085c-.303.175-.478.553-.369.883.117.302.471.375.783.195.467-.27.646-.881.305-1.331-.3-.381-.893-.547-1.585-.205-1.487.743-1.244 2.104-.403 2.761zm5.39-8.504c.137.337.523.425.861.23.32-.185.523-.613.404-.96-.127-.32-.514-.43-.843-.24s-.543.66-.422.97zm.292 5.385c.018 1.63.72 1.928 1.163 1.673.83-.48 1.514-2.317 1.533-4.464-.008-.134-.152-.143-.134.008a8.3 8.3 0 0 1-.548 2.891c-.348.778-.851 1.565-.864.383l-.06-3.383c-.027-1.127-.743-1.107-1.167-.862z" style="-inkscape-font-specification:'Candlescript Demo Version';text-align:center" font-size="16.933" font-family="Candlescript Demo Version" word-spacing="0" text-anchor="middle" fill="rgba(0, 0, 0, 1)" stroke="none"/>
    <path d="M87.609 52.67c.052 3.411.23 8.1-1.717 10.506-1.472 1.831-3.61 3.147-5.547 1.193-.463.499-.059.958.335 1.1 2.082.807 3.815-.332 5.42-2.17 2.257-2.632 2.693-6.937 2.635-10.678l-.097-5.649 1.16-.67c.2-.115.121-.37-.07-.26l-1.1.635c-.056-3.339-.103-7.619 1.737-9.893 1.463-1.826 3.615-3.138 5.546-1.193.454-.493.05-.953-.338-1.087-2.088-.815-3.82.324-5.412 2.167-2.257 2.63-2.698 6.927-2.667 10.661l-.744.43c-.226.13-.122.37.052.27l.71-.41z" style="-inkscape-font-specification:'Candlescript Demo Version';text-align:center" font-size="16.933" font-family="Candlescript Demo Version" word-spacing="0" text-anchor="middle" fill="rgba(0, 0, 0, 1)" stroke="none"/>
  </g>
  <g>
    <path d="M48.05 87.718c.009 3.413.24 8.094-1.711 10.514-1.468 1.818-3.615 3.138-5.552 1.185-.454.493-.05.953.344 1.095 2.082.807 3.82-.324 5.412-2.166 2.257-2.631 2.719-6.951 2.639-10.67l-.123-5.933c-.728.42-1.1.774-1.078 1.893l.045 2.098a5.8 5.8 0 0 1-.441 1.756c-.353.99-.882 1.653-.908.548l-.06-3.384c-.005-1.129-.693-1.1-1.118-.856l.073 3.746c.017 1.63.755 1.908 1.17 1.668.53-.305 1.051-1.46 1.31-2.453zm5.842-5.763c-.031-1.714-.657-2.738-1.956-1.988s-1.868 2.464-1.854 4.188c.046 1.74.646 2.78 1.954 2.024.346-.2.605-.43.857-.714.158.013.357-.022.535-.113.436-.205 1.007-.777 1.367-1.713a8.8 8.8 0 0 0 .478-2.932c-.003-.125-.152-.143-.134.008a8 8 0 0 1-.547 2.892c-.197.46-.628 1.112-1.137 1.21-.054.008-.107.016-.14 0a6.6 6.6 0 0 0 .577-2.862zm-1.863 3.974c-.476.275-.837-.81-.868-2.385s.328-3.03.779-3.29c.32-.186.67-.019.854.8a8.14 8.14 0 0 1 .075 2.67c-.738.46-.855 1.278-.41 1.61-.17.364-.343.545-.43.595z" style="-inkscape-font-specification:'Candlescript Demo Version';text-align:center" font-size="16.933" font-family="Candlescript Demo Version" word-spacing="0" text-anchor="middle" fill="rgba(0, 0, 0, 1)" stroke="none"/>
    <path d="M57.5 81.304c.18 1.073.735 1.273 1.09 1.068.84-.485 1.505-2.313 1.533-4.465.006-.13-.143-.148-.151.018a8 8 0 0 1-.53 2.882c-.348.778-.852 1.565-.865.383l-.087-4.892c-.736.425-1.1.774-1.078 1.893l.045 2.098a5.8 5.8 0 0 1-.441 1.756c-.362.994-.882 1.653-.908.548l-.06-3.384c-.005-1.129-.693-1.1-1.118-.856l.064 3.75c.017 1.63.755 1.909 1.18 1.664.528-.305 1.067-1.47 1.317-2.458zm9.425-9.876c-.693.4-1.076.737-1.103 1.71-.238-.532-.553-.777-.974-.626-1.306.477-1.665 2.774-1.637 4.063.023 1.441.63 2.65 1.701 2.147.479-.23.784-.742 1-1.686l.005.367c-.006 3.41.23 8.1-1.712 10.514-1.477 1.823-3.624 3.143-5.552 1.185-.462.498-.059.958.335 1.1 2.083.807 3.82-.324 5.42-2.171 2.25-2.626 2.663-6.93 2.64-10.67zm-1.826 1.378c.398-.23.73.664.752 2.222.031 1.575-.283 2.91-.69 3.146-.51.295-.794-.696-.812-2.268-.027-1.566.379-2.863.755-3.092zm6.66-1.166c-.032-1.714-.658-2.738-1.966-1.983-1.299.75-1.868 2.464-1.854 4.188.055 1.735.655 2.774 1.954 2.024a3.3 3.3 0 0 0 .858-.714c.166.008.365-.027.544-.118.427-.2.997-.772 1.358-1.708a8.8 8.8 0 0 0 .478-2.932c.005-.13-.144-.148-.134.008.017 1.03-.253 2.202-.54 2.887-.196.46-.627 1.112-1.145 1.215-.045.003-.107.016-.13-.005a6.6 6.6 0 0 0 .576-2.862zm-1.863 3.974c-.477.275-.846-.805-.878-2.38s.329-3.03.78-3.29c.32-.186.679-.024.854.8a8.14 8.14 0 0 1 .075 2.67c-.73.455-.847 1.273-.401 1.605-.18.37-.352.55-.44.6z" style="-inkscape-font-specification:'Candlescript Demo Version';text-align:center" font-size="16.933" font-family="Candlescript Demo Version" word-spacing="0" text-anchor="middle" fill="rgba(0, 0, 0, 1)" stroke="none"/>
    <path d="M72.156 68.408c-.217.125-.126.362.055.257l.702-.405.049 2.685c.032 2.915 1.6 2.852 2.581 1.13a7.4 7.4 0 0 0 .892-3.574c-.016-.129-.143-.148-.156.01a6.72 6.72 0 0 1-.94 3.452c-.225.35-.473.62-.766.673-.292.053-.43-.445-.432-1.31l-.102-3.716 1.16-.67c.208-.12.152-.377-.02-.277l-1.127.65c-.062-3.347-.125-7.617 1.719-9.883 1.471-1.831 3.61-3.147 5.546-1.193.463-.498.06-.958-.334-1.1-2.088-.816-3.82.323-5.421 2.171-2.257 2.631-2.684 6.93-2.658 10.657zm7.834-6.29c.128.342.514.43.852.236.32-.185.523-.614.404-.96-.127-.32-.5-.428-.83-.238s-.552.643-.426.962zm.292 5.386c.017 1.63.72 1.928 1.162 1.673.832-.48 1.515-2.318 1.525-4.46.005-.13-.143-.148-.134.008a8.3 8.3 0 0 1-.54 2.887c-.355.783-.85 1.565-.872.388l-.06-3.384c-.013-1.123-.729-1.103-1.153-.858z" style="-inkscape-font-specification:'Candlescript Demo Version';text-align:center" font-size="16.933" font-family="Candlescript Demo Version" word-spacing="0" text-anchor="middle" fill="rgba(0, 0, 0, 1)" stroke="none"/>
    <path d="M81.994 62.728c-.217.125-.118.357.055.257l.702-.405.05 2.685c.04 2.91 1.608 2.847 2.589 1.126a7.4 7.4 0 0 0 .883-3.57c-.016-.129-.143-.148-.147.004a6.72 6.72 0 0 1-.94 3.453c-.234.354-.482.624-.766.673-.301.058-.43-.445-.441-1.304l-.094-3.722 1.152-.665c.208-.12.161-.382-.02-.277l-1.127.65c-.062-3.347-.125-7.617 1.719-9.883 1.471-1.831 3.619-3.152 5.546-1.193.463-.498.06-.958-.334-1.1-2.088-.816-3.82.323-5.412 2.166-2.257 2.631-2.693 6.936-2.667 10.662z" style="-inkscape-font-specification:'Candlescript Demo Version';text-align:center" font-size="16.933" font-family="Candlescript Demo Version" word-spacing="0" text-anchor="middle" fill="rgba(0, 0, 0, 1)" stroke="none"/>
  </g>
  <g>
    <path d="M59.494 95.043c.013 3.422.23 8.1-1.712 10.515-1.472 1.83-3.615 3.138-5.552 1.184-.463.498-.059.958.335 1.1 2.088.816 3.82-.323 5.42-2.171 2.258-2.631 2.716-6.937 2.64-10.67l-.123-5.932c-.736.425-1.1.773-1.078 1.892l.041 2.112a6 6 0 0 1-.432 1.751c-.362.994-.896 1.649-.917.552l-.056-3.397c-.005-1.128-.693-1.1-1.126-.85l.08 3.74c.023 1.639.752 1.922 1.177 1.677.52-.3 1.045-1.47 1.295-2.457z" style="-inkscape-font-specification:'Candlescript Demo Version';text-align:center" font-size="16.933" font-family="Candlescript Demo Version" word-spacing="0" text-anchor="middle" fill="rgba(0, 0, 0, 1)" stroke="none"/>
    <path d="M86.167 65.902l2.295 3.975-1.212.7-2.3-3.983z" style="-inkscape-font-specification:'Candlescript Demo Version';text-align:center" font-size="16.933" font-family="Candlescript Demo Version" word-spacing="0" text-anchor="middle" fill="rgba(0, 0, 0, 1)" stroke="none"/>
    <path d="M39.503 101.077c-1.298.472-1.675 2.78-1.647 4.068.024 1.441.66 2.703 1.707 2.156.545-.315.91-1.023 1.077-1.973.232.801.715.938 1.053.743.831-.48 1.492-2.316 1.533-4.465-.008-.134-.152-.143-.156.01a8 8 0 0 1-.54 2.886c-.355.783-.837 1.569-.855.378l-.087-4.891c-.71.41-1.076.736-1.111 1.715-.23-.537-.562-.773-.983-.622zm.247.308c.407-.235.724.655.751 2.222.027 1.566-.287 2.902-.677 3.127-.52.3-.803-.691-.838-2.252-.018-1.572.388-2.869.764-3.097z" style="-inkscape-font-specification:'Candlescript Demo Version';text-align:center" font-size="16.933" font-family="Candlescript Demo Version" word-spacing="0" text-anchor="middle" fill="rgba(0, 0, 0, 1)" stroke="none"/>
    <path d="M47.92 98.816a8 8 0 0 1-.53 2.88c-.348.779-.847 1.575-.865.384l-.05-2.685c-.034-1.62-.754-1.908-1.187-1.658-.546.315-1.024 1.307-1.273 2.236-.059-.982-.73-.964-1.137-.73l.088 4.453c.024 1.141.707 1.105 1.132.86l-.05-3.447a5.9 5.9 0 0 1 .386-1.77c.389-.987.87-1.495.894-.413l.039 2.668c.04 1.629.743 1.927 1.176 1.677.84-.485 1.5-2.321 1.533-4.465 0-.139-.143-.148-.156.01z" style="-inkscape-font-specification:'Candlescript Demo Version';text-align:center" font-size="16.933" font-family="Candlescript Demo Version" word-spacing="0" text-anchor="middle" fill="rgba(0, 0, 0, 1)" stroke="none"/>
    <path d="M49.544 95.73c.416-.24.725.655.752 2.222.027 1.566-.287 2.902-.677 3.127-.51.295-.803-.691-.83-2.257s.38-2.864.755-3.092zm.726.297c-.228-.515-.557-.764-.981-.6-1.29.467-1.657 2.77-1.638 4.063.024 1.441.66 2.703 1.706 2.156.546-.315.911-1.023 1.083-1.965.094.362.255.58.427.7.743.507 1.479-.819 1.718-1.384a9.94 9.94 0 0 0 .566-3.12c0-.14-.144-.15-.157.009a8.8 8.8 0 0 1-.539 2.886c-.324.799-.967 1.644-.985.453l-.069-4.279c-.052-3.41-.239-8.095 1.712-10.514 1.468-1.818 3.616-3.139 5.552-1.185.454-.493.059-.958-.344-1.095-2.082-.807-3.815.332-5.411 2.166-2.257 2.631-2.688 6.945-2.66 10.693zm15.07-6.738c-.036-1.723-.662-2.747-1.97-1.992-1.299.75-1.868 2.464-1.854 4.188.055 1.735.655 2.774 1.963 2.02.346-.2.61-.422.862-.706.153.004.352-.03.536-.113.422-.21.997-.772 1.358-1.708a8.8 8.8 0 0 0 .478-2.932c0-.139-.144-.148-.14 0 .018 1.029-.252 2.201-.538 2.886-.192.468-.628 1.113-1.146 1.215-.045.003-.102.024-.13-.005a6.6 6.6 0 0 0 .581-2.853zm-1.867 3.965c-.477.275-.841-.796-.878-2.38-.018-1.572.329-3.03.78-3.29.328-.19.679-.023.854.8a8.14 8.14 0 0 1 .075 2.67c-.725.464-.847 1.273-.401 1.605-.175.378-.344.545-.44.6z" style="-inkscape-font-specification:'Candlescript Demo Version';text-align:center" font-size="16.933" font-family="Candlescript Demo Version" word-spacing="0" text-anchor="middle" fill="rgba(0, 0, 0, 1)" stroke="none"/>
    <path d="M68.926 88.64c.198 1.062.74 1.28 1.112 1.066.84-.485 1.5-2.321 1.533-4.465-.008-.134-.143-.148-.156.01a8 8 0 0 1-.54 2.886c-.338.773-.828 1.564-.855.378l-.087-4.891c-.736.425-1.1.773-1.078 1.892l.041 2.112a6 6 0 0 1-.432 1.751c-.362.994-.896 1.649-.917.552l-.065-3.392c-.005-1.128-.693-1.1-1.117-.855l.081 3.74c.022 1.639.751 1.922 1.176 1.677.52-.3 1.062-1.48 1.312-2.467zm7.586-8.48c.416-.24.725.655.752 2.222.027 1.566-.287 2.902-.677 3.127-.51.295-.803-.691-.83-2.257s.38-2.864.755-3.092zm.726.297c-.228-.515-.557-.764-.981-.6-1.29.467-1.657 2.77-1.638 4.063.024 1.441.66 2.703 1.706 2.156.546-.315.911-1.023 1.083-1.965.094.362.255.58.427.7.743.507 1.48-.819 1.718-1.384a9.94 9.94 0 0 0 .566-3.12c0-.14-.144-.15-.156.009a8.8 8.8 0 0 1-.54 2.886c-.323.799-.967 1.644-.985.453l-.069-4.279c-.052-3.41-.239-8.095 1.712-10.514 1.468-1.818 3.616-3.139 5.552-1.185.454-.493.059-.958-.344-1.095-2.082-.807-3.815.332-5.411 2.166-2.257 2.631-2.688 6.945-2.66 10.693z" style="-inkscape-font-specification:'Candlescript Demo Version';text-align:center" font-size="16.933" font-family="Candlescript Demo Version" word-spacing="0" text-anchor="middle" fill="rgba(0, 0, 0, 1)" stroke="none"/>
    <path d="M83.51 78.799c-.037-1.723-.663-2.747-1.97-1.992-1.3.75-1.869 2.464-1.855 4.188.055 1.735.655 2.774 1.963 2.02.346-.2.61-.422.862-.706.153.004.353-.03.536-.113.43-.214.997-.772 1.358-1.708a8.8 8.8 0 0 0 .478-2.932c0-.139-.143-.148-.139 0 .017 1.029-.253 2.201-.53 2.88-.21.48-.637 1.119-1.146 1.216-.053.008-.102.024-.139 0a6.6 6.6 0 0 0 .581-2.853zm-1.868 3.965c-.477.275-.841-.796-.878-2.38-.018-1.572.329-3.03.78-3.29.328-.19.679-.023.854.8a8.14 8.14 0 0 1 .075 2.67c-.725.464-.847 1.273-.401 1.605-.174.378-.344.545-.439.6z" style="-inkscape-font-specification:'Candlescript Demo Version';text-align:center" font-size="16.933" font-family="Candlescript Demo Version" word-spacing="0" text-anchor="middle" fill="rgba(0, 0, 0, 1)" stroke="none"/>
    <path d="M89.584 74.76a8 8 0 0 1-.539 2.887c-.339.773-.83 1.564-.855.378l-.05-2.685c-.034-1.62-.763-1.903-1.188-1.658-.545.315-1.023 1.307-1.272 2.236-.06-.982-.73-.964-1.146-.724l.088 4.452c.032 1.136.716 1.1 1.14.855l-.05-3.447a5.9 5.9 0 0 1 .387-1.77c.388-.987.869-1.495.893-.413l.04 2.668c.039 1.629.734 1.932 1.175 1.677.84-.485 1.5-2.321 1.533-4.465 0-.139-.143-.148-.156.01z" style="-inkscape-font-specification:'Candlescript Demo Version';text-align:center" font-size="16.933" font-family="Candlescript Demo Version" word-spacing="0" text-anchor="middle" fill="rgba(0, 0, 0, 1)" stroke="none"/>
    <path d="M88.665 72.809c-.217.125-.126.361.056.256l.701-.405.054 2.694c.032 2.915 1.596 2.843 2.582 1.13a7.4 7.4 0 0 0 .887-3.583c-.017-.129-.144-.148-.157.01a6.72 6.72 0 0 1-.94 3.452c-.225.35-.473.62-.765.673-.293.053-.43-.445-.433-1.309l-.102-3.717 1.16-.67c.208-.12.153-.376-.02-.276l-1.126.65c-.062-3.348-.126-7.618 1.718-9.884 1.472-1.831 3.61-3.147 5.547-1.193.463-.498.059-.958-.335-1.1-2.083-.807-3.815.332-5.42 2.171-2.258 2.631-2.685 6.931-2.659 10.657z" style="-inkscape-font-specification:'Candlescript Demo Version';text-align:center" font-size="16.933" font-family="Candlescript Demo Version" word-spacing="0" text-anchor="middle" fill="rgba(0, 0, 0, 1)" stroke="none"/>
  </g>
  <g>
    <path d="M39.962 113.735c-1.29.468-1.658 2.77-1.638 4.064.024 1.44.66 2.702 1.706 2.155.546-.315.911-1.022 1.078-1.973.232.802.715.938 1.053.743.84-.485 1.505-2.312 1.533-4.464 0-.14-.144-.149-.157.009a8 8 0 0 1-.534 2.895c-.36.774-.834 1.555-.855.378l-.093-4.9c-.701.405-1.075.737-1.102 1.71-.233-.523-.562-.772-.991-.617zm.255.303c.416-.24.725.656.752 2.222.027 1.567-.287 2.903-.677 3.128-.511.295-.803-.691-.83-2.258s.384-2.854.755-3.092z" style="-inkscape-font-specification:'Candlescript Demo Version';text-align:center" font-size="16.933" font-family="Candlescript Demo Version" word-spacing="0" text-anchor="middle" fill="rgba(0, 0, 0, 1)" stroke="none"/>
    <path d="M45.02 110.815c-1.404.81-2.058 2.597-1.895 4.12.158 1.594 1.195 2.15 2.041 1.915 1.227-.315 1.895-1.198 2.328-2.267a7.34 7.34 0 0 0 .513-2.813c-.009-.134-.144-.149-.157.009a7.82 7.82 0 0 1-.545 2.716c-.42.993-1.204 1.874-2.048 1.853-.535-.027-.87-.607-.962-1.408a4.868 4.868 0 0 1-.041-1.13c.033-.943.217-2.505 1.04-2.899.322-.163.645-.142.661.346-.44.138-.739.6-.586.985.108.307.452.362.751.2 1.188-.662.36-2.436-1.092-1.632z" style="-inkscape-font-specification:'Candlescript Demo Version';text-align:center" font-size="16.933" font-family="Candlescript Demo Version" word-spacing="0" text-anchor="middle" fill="rgba(0, 0, 0, 1)" stroke="none"/>
    <path d="M47.747 113.86c.015 1.146.712 1.113 1.136.868l-.023-3c.127-.56.543-1.7.935-2.48.531-1 .912-1.6 1.102-1.491.172.097-.019 1.027-1.56 3.556l.662.807c1.16 1.41 1.622 1.79 2.305.194.242-.521.395-1.117.453-1.416.139-.6.214-1.29.23-2.003 0-.14-.144-.149-.148.004a7.69 7.69 0 0 1-.391 2.443c-.34 1.073-.47 1.287-1.212.341l-.697-.867a13.7 13.7 0 0 0 .714-1.544c.433-1.209.35-1.934-.277-1.838-.64.092-1.479 1.778-2.152 3.471l-.003-1.545c-.053-3.411-.24-8.095 1.717-10.506 1.463-1.826 3.61-3.147 5.546-1.193.454-.494.06-.958-.343-1.095-2.083-.807-3.815.332-5.412 2.166-2.257 2.63-2.683 6.953-2.66 10.692z" style="-inkscape-font-specification:'Candlescript Demo Version';text-align:center" font-size="16.933" font-family="Candlescript Demo Version" word-spacing="0" text-anchor="middle" fill="rgba(0, 0, 0, 1)" stroke="none"/>
    <path d="M57.688 106.099a8 8 0 0 1-.534 2.895c-.344.764-.834 1.555-.855.378l-.054-2.694c-.035-1.62-.764-1.903-1.189-1.658-.545.315-1.018 1.316-1.272 2.236-.06-.982-.73-.964-1.146-.724l.088 4.453c.033 1.136.721 1.108 1.145.863l-.055-3.456a5.9 5.9 0 0 1 .387-1.77c.389-.987.869-1.495.893-.412l.045 2.676c.034 1.62.729 1.923 1.17 1.668.84-.485 1.506-2.312 1.534-4.464 0-.14-.144-.149-.157.009z" style="-inkscape-font-specification:'Candlescript Demo Version';text-align:center" font-size="16.933" font-family="Candlescript Demo Version" word-spacing="0" text-anchor="middle" fill="rgba(0, 0, 0, 1)" stroke="none"/>
    <path d="M61.235 104.582c-.031-1.714-.662-2.747-1.97-1.992-1.299.75-1.868 2.465-1.854 4.189.055 1.735.66 2.783 1.959 2.033a3.03 3.03 0 0 0 .853-.724c.17.017.365-.026.549-.109.422-.209.997-.772 1.358-1.708a8.8 8.8 0 0 0 .478-2.931c0-.14-.144-.149-.14-.001.018 1.03-.252 2.202-.533 2.895-.197.46-.633 1.104-1.15 1.207-.046.003-.103.024-.131-.006a6.6 6.6 0 0 0 .581-2.853zm-1.867 3.965c-.477.275-.841-.796-.878-2.38-.018-1.571.329-3.03.78-3.29.328-.19.684-.014.854.8a8.14 8.14 0 0 1 .075 2.67c-.725.465-.847 1.274-.401 1.606-.175.377-.353.55-.44.6z" style="-inkscape-font-specification:'Candlescript Demo Version';text-align:center" font-size="16.933" font-family="Candlescript Demo Version" word-spacing="0" text-anchor="middle" fill="rgba(0, 0, 0, 1)" stroke="none"/>
    <path d="M67.85 102.6c.802-2.311.13-4.417-2.095-5.05-.11-.029-.277.022-.105.119.77.375 1.412 1.725 1.513 3.121.131 1.587-.247 3.411-.975 3.831-.346.2-.4-.554-.41-.71l-.064-3.312c-.024-1.14-.702-1.095-1.127-.85l.038 2.865c.03 1.091-.259 2.932-.795 3.242-.347.2-.378-.475-.388-.631l-.06-3.383c-.01-1.138-.693-1.101-1.117-.856l.048 3.482c.029.711.073 1.828.938 1.906.792.051 1.6-1.108 1.927-2.382.052.49.579 1.202 1.231.732a4.87 4.87 0 0 0 1.44-2.125zm2.37-5.595c-.06-3.406-.24-8.095 1.708-10.501 1.472-1.831 3.62-3.152 5.547-1.193.463-.499.059-.958-.335-1.1-2.082-.807-3.815.332-5.412 2.166-2.257 2.63-2.691 6.958-2.669 10.697l.068 3.737c.017.95.252 1.437.55 1.634.752.501 1.488-.824 1.692-1.37a9.66 9.66 0 0 0 .6-3.14c-.016-.13-.152-.144-.156.009.017 1.03-.285 2.186-.569 2.915-.294.77-.955 1.625-.968.443z" style="-inkscape-font-specification:'Candlescript Demo Version';text-align:center" font-size="16.933" font-family="Candlescript Demo Version" word-spacing="0" text-anchor="middle" fill="rgba(0, 0, 0, 1)" stroke="none"/>
    <path d="M73.265 94.739c.312-.18.534.245.527 1.012a3.63 3.63 0 0 1-1.278 2.666l-.002-.923c.045-1.342.36-2.517.758-2.747zm-1.882 3.88c.159 1.595 1.196 2.15 2.042 1.916 1.209-.305 1.877-1.188 2.31-2.257a7.4 7.4 0 0 0 .53-2.823c-.008-.134-.143-.149-.156.009a7.77 7.77 0 0 1-.528 2.706c-.437 1.003-1.222 1.884-2.074 1.868-.535-.027-.861-.612-.963-1.408 1.115-.909 2.288-2.198 2.335-3.276.064-1.169-.805-1.314-1.593-.859-1.411.815-2.048 2.592-1.903 4.124z" style="-inkscape-font-specification:'Candlescript Demo Version';text-align:center" font-size="16.933" font-family="Candlescript Demo Version" word-spacing="0" text-anchor="middle" fill="rgba(0, 0, 0, 1)" stroke="none"/>
    <path d="M79.58 90.977c-.692.4-1.075.737-1.102 1.71-.225-.528-.553-.777-.974-.627-1.307.478-1.657 2.77-1.638 4.064.024 1.44.635 2.659 1.706 2.155.474-.239.788-.755 1.005-1.7l-.005.372c-.005 3.41.24 8.095-1.712 10.515-1.462 1.826-3.61 3.147-5.546 1.193-.463.498-.06.958.33 1.092 2.096.81 3.829-.329 5.42-2.172 2.257-2.63 2.662-6.929 2.64-10.669zm-1.82 1.386c.398-.23.724.656.751 2.222.027 1.567-.287 2.903-.686 3.133-.52.3-.794-.696-.82-2.263s.383-2.854.754-3.092zm4.572-2.86c.303-.174.526.251.527 1.013a3.63 3.63 0 0 1-1.278 2.666c-.012-.281-.018-.59-.01-.918.053-1.347.368-2.522.766-2.752zm-1.89 3.886c.158 1.595 1.204 2.146 2.05 1.911 1.21-.305 1.869-1.183 2.31-2.257a7.4 7.4 0 0 0 .522-2.818c0-.14-.144-.149-.148.004a7.77 7.77 0 0 1-.536 2.711c-.437 1.003-1.222 1.884-2.066 1.863-.543-.022-.86-.612-.971-1.403 1.115-.909 2.287-2.198 2.335-3.276.064-1.169-.796-1.319-1.593-.859-1.403.81-2.04 2.587-1.894 4.12zm7.792-9.163c.132.328.518.417.856.222.32-.185.523-.614.408-.952-.126-.32-.505-.436-.843-.24-.32.184-.548.65-.421.97zm.287 5.377c.022 1.638.725 1.936 1.167 1.681.84-.485 1.514-2.317 1.533-4.464 0-.14-.143-.149-.139-.001a8.3 8.3 0 0 1-.534 2.895c-.361.774-.86 1.57-.873.388l-.064-3.392c-.023-1.118-.73-1.103-1.163-.853z" style="-inkscape-font-specification:'Candlescript Demo Version';text-align:center" font-size="16.933" font-family="Candlescript Demo Version" word-spacing="0" text-anchor="middle" fill="rgba(0, 0, 0, 1)" stroke="none"/>
    <path d="M90.241 84.822c-.216.125-.121.37.06.265l.694-.4.049 2.685c.04 2.91 1.609 2.847 2.59 1.126a7.4 7.4 0 0 0 .887-3.583c-.017-.13-.144-.149-.156.009a6.72 6.72 0 0 1-.94 3.452c-.22.359-.477.634-.766.674-.293.053-.43-.445-.441-1.305l-.089-3.713 1.16-.67c.208-.12.148-.385-.025-.285l-1.126.65c-.062-3.347-.121-7.609 1.718-9.883 1.463-1.826 3.61-3.147 5.547-1.193.463-.499.059-.958-.335-1.1-2.091-.802-3.824.337-5.42 2.17-2.258 2.632-2.685 6.931-2.662 10.671z" style="-inkscape-font-specification:'Candlescript Demo Version';text-align:center" font-size="16.933" font-family="Candlescript Demo Version" word-spacing="0" text-anchor="middle" fill="rgba(0, 0, 0, 1)" stroke="none"/>
  </g>
</svg>
</g></svg></g></g>
<!-- /image 36008 -->
</defs><rect x="0" y="0" width="180" height="216" fill="rgba(255, 255, 255, 0)"></rect><use xlink:href="#transformed-36008" transform="translate(-180, -216)"></use><use xlink:href="#transformed-36008" transform="translate(0, -216)"></use><use xlink:href="#transformed-36008" transform="translate(180, -216)"></use><use xlink:href="#transformed-36008" transform="translate(-180, 0)"></use><use xlink:href="#transformed-36008" transform="translate(0, 0)"></use><use xlink:href="#transformed-36008" transform="translate(180, 0)"></use><use xlink:href="#transformed-36008" transform="translate(-180, 216)"></use><use xlink:href="#transformed-36008" transform="translate(0, 216)"></use><use xlink:href="#transformed-36008" transform="translate(180, 216)"></use></svg>