<svg width="512" height="512" viewBox="0 0 135.467 135.467" xml:space="preserve" xmlns:xlink="http://www.w3.org/1999/xlink" xmlns="http://www.w3.org/2000/svg"><defs><linearGradient id="c"><stop offset="0" style="stop-color: rgb(34, 0, 85); stop-opacity: 1;"></stop><stop offset="1" style="stop-color: rgb(55, 55, 72); stop-opacity: 1;"></stop></linearGradient><linearGradient id="b"><stop offset="0" style="stop-color: rgb(127, 42, 255); stop-opacity: 1;"></stop><stop offset="1" style="stop-color: rgb(113, 55, 200); stop-opacity: 1;"></stop></linearGradient><linearGradient id="a"><stop offset="0" style="stop-color: rgb(127, 42, 255); stop-opacity: 1;"></stop><stop offset="1" style="stop-color: rgb(0, 204, 255); stop-opacity: 1;"></stop></linearGradient><linearGradient xlink:href="#a" id="g" x1="135.467" y1="135.467" x2="135.467" y2="40.218" gradientUnits="userSpaceOnUse"></linearGradient><linearGradient xlink:href="#a" id="h" x1="24.342" y1="113.585" x2="24.342" y2=".001" gradientUnits="userSpaceOnUse"></linearGradient><linearGradient xlink:href="#b" id="e" x1="135.467" y1="0" x2="135.467" y2="89.838" gradientUnits="userSpaceOnUse"></linearGradient><linearGradient xlink:href="#c" id="f" x1="93.71" y1="135.467" x2="93.71" y2="0" gradientUnits="userSpaceOnUse"></linearGradient></defs><g style="display: inline;"><path d="m27.423 2.55 104.962 86.856a1.882 1.882 154.804 0 0 3.082-1.45V46.22a6.933 6.933 60.017 0 0-3.462-6.002l-66.1-38.216A14.91 14.91 15.017 0 0 58.442 0h-30.1a1.44 1.44 109.803 0 0-.919 2.55Z" style="display: inline; fill: url(&quot;#e&quot;); fill-opacity: 1; stroke-width: 0.264583;"></path><g style="display: inline;"><rect width="101.6" height="135.467" x="8.467" ry="4.233" style="display: inline; fill: url(&quot;#f&quot;); fill-opacity: 1; stroke-width: 0.349956;"></rect></g><g style="display: inline; fill: url(&quot;#g&quot;); fill-opacity: 1;"><path d="m132.403 94.527-48.79 40.94H24.342L132.403 44.79a1.865 1.865 25 0 1 3.064 1.43v41.735a8.578 8.578 115 0 1-3.064 6.571z" style="fill: url(&quot;#g&quot;); fill-opacity: 1; stroke-width: 0.301064;"></path><path d="M132.005 40.218c2.322 2.193 1.299 3.663.398 4.573l3.064 1.43c0-3.136-.711-4.312-3.462-6.003z" style="display: inline; fill: url(&quot;#g&quot;); fill-opacity: 1; stroke-width: 0.264583;"></path></g><g style="display: inline;"><path transform="skewY(-40) scale(.76604 1)" d="m31.776 20.426 49.736 31.969v81.615a4 4 135 0 1-4 4H35.776a4 4 45 0 1-4-4z" style="display: inline; fill: url(&quot;#h&quot;); fill-opacity: 1; stroke-width: 0.343979;"></path></g><g style="display: inline; fill: rgb(113, 55, 200);"><path d="M7.307 40.483h-48.001v96h96v-48h-48Z" transform="rotate(-45 18.241 -10.716) scale(.44988)" style="fill: rgb(212, 0, 85); fill-opacity: 1; stroke: none; stroke-width: 0; stroke-dasharray: none;"></path></g></g></svg>
